<svg width="102" height="102" viewBox="0 0 102 102" fill="none" xmlns="http://www.w3.org/2000/svg">
<rect opacity="0.5" x="10" y="20" width="82" height="82" rx="41" fill="url(#paint0_linear)"/>
<rect opacity="0.5" x="20" y="10" width="82" height="82" rx="41" fill="url(#paint1_linear)"/>
<rect opacity="0.5" y="10" width="82" height="82" rx="41" fill="url(#paint2_linear)"/>
<rect opacity="0.5" x="10" width="82" height="82" rx="41" fill="url(#paint3_linear)"/>
<rect x="16" y="16" width="70" height="70" rx="35" fill="white"/>
<path d="M65.0279 62.1155C63.9051 61.4666 63 60.3756 63 59.0788C63 58.4788 62.6 58.0788 62 58.0788H58.343C57.049 58.0788 56 59.1278 56 60.4218C56 60.8515 55.8818 61.2729 55.6584 61.64L53.2423 65.6093C53.2142 65.6554 53.175 65.7008 53.1455 65.7461C53.0472 65.8969 53 66.0799 53 66.2599V67.6788C53 68.4788 52.3 69.1788 51.5 69.1788C50.7 69.1788 50 68.4788 50 67.6788V66.2599C50 66.0799 49.9528 65.8969 49.8545 65.7461C49.825 65.7008 49.7858 65.6554 49.7577 65.6093L47.3416 61.64C47.1182 61.2729 47 60.8515 47 60.4218C47 59.1278 45.951 58.0788 44.657 58.0788H41C40.4 58.0788 40 58.4788 40 59.0788C40 60.3678 39.0797 61.4441 37.9601 62.0829C35.6133 63.4219 34 65.9642 34 68.8788V70.5788C34 70.8788 34.2 71.0788 34.5 71.0788H68.5C68.8 71.0788 69 70.8788 69 70.5788V68.8788C69 65.9593 67.3812 63.4756 65.0279 62.1155Z" fill="url(#paint4_linear)"/>
<path d="M59 51.0788C58.4477 51.0788 58.0127 50.624 57.8753 50.0891C57.432 48.3637 55.8587 47.0788 54 47.0788H49C47.1413 47.0788 45.568 48.3637 45.1247 50.0891C44.9873 50.624 44.5523 51.0788 44 51.0788C43.4 51.0788 43 51.4788 43 52.0788C43 52.6788 43.4 53.0788 44 53.0788H48C49.9078 53.0788 53.0922 53.0788 55 53.0788H59C59.6 53.0788 60 52.6788 60 52.0788C60 51.5788 59.6 51.0788 59 51.0788ZM64.5 40.0788C62.9036 40.0788 61.5024 39.016 61.072 37.4788L59.7 32.5788C59.5 31.6788 58.9 30.8788 58 30.4788C57 29.8788 55.7 29.8788 54.6 30.2788C52.6 30.9788 50.5 30.9788 48.5 30.2788C47.4 29.8788 46.1 29.9788 45.1 30.4788C44.2 30.9788 43.6 31.6788 43.4 32.5788L41.6 38.9788C41.4229 39.6282 40.833 40.0788 40.1599 40.0788H38.6C37.8 40.0788 37.1 40.7788 37.1 41.5788C37.1 42.3788 37.8 43.0788 38.6 43.0788H39.5C40.3284 43.0788 41 43.7503 41 44.5788C41 45.4072 41.6716 46.0788 42.5 46.0788C43.3284 46.0788 44 45.4072 44 44.5788C44 43.7503 44.6716 43.0788 45.5 43.0788H57.5C58.3284 43.0788 59 43.7503 59 44.5788C59 45.4072 59.6716 46.0788 60.5 46.0788C61.3284 46.0788 62 45.4072 62 44.5788C62 43.7503 62.6716 43.0788 63.5 43.0788H64.5C65.3 43.0788 66 42.3788 66 41.5788C66 40.7788 65.3 40.0788 64.5 40.0788Z" fill="url(#paint5_linear)"/>
<defs>
<linearGradient id="paint0_linear" x1="51" y1="20" x2="51" y2="102" gradientUnits="userSpaceOnUse">
<stop stop-color="#2A63A9"/>
<stop offset="0.0001" stop-color="#86C4FF"/>
<stop offset="1" stop-color="#40D1FF"/>
</linearGradient>
<linearGradient id="paint1_linear" x1="61" y1="10" x2="61" y2="92" gradientUnits="userSpaceOnUse">
<stop stop-color="#2A63A9"/>
<stop offset="0.0001" stop-color="#86C4FF"/>
<stop offset="1" stop-color="#40D1FF"/>
</linearGradient>
<linearGradient id="paint2_linear" x1="41" y1="10" x2="41" y2="92" gradientUnits="userSpaceOnUse">
<stop stop-color="#2A63A9"/>
<stop offset="0.0001" stop-color="#86C4FF"/>
<stop offset="1" stop-color="#40D1FF"/>
</linearGradient>
<linearGradient id="paint3_linear" x1="51" y1="0" x2="51" y2="82" gradientUnits="userSpaceOnUse">
<stop stop-color="#2A63A9"/>
<stop offset="0.0001" stop-color="#86C4FF"/>
<stop offset="1" stop-color="#40D1FF"/>
</linearGradient>
<linearGradient id="paint4_linear" x1="51.5" y1="30" x2="51.5" y2="71.0788" gradientUnits="userSpaceOnUse">
<stop offset="0.0001" stop-color="#86C4FF"/>
<stop offset="0.119792" stop-color="#2A63A9"/>
<stop offset="1" stop-color="#40D1FF"/>
</linearGradient>
<linearGradient id="paint5_linear" x1="51.5" y1="30" x2="51.5" y2="71.0788" gradientUnits="userSpaceOnUse">
<stop offset="0.0001" stop-color="#86C4FF"/>
<stop offset="0.119792" stop-color="#2A63A9"/>
<stop offset="1" stop-color="#40D1FF"/>
</linearGradient>
</defs>
</svg>
