<svg width="33" height="44" viewBox="0 0 33 44" fill="none" xmlns="http://www.w3.org/2000/svg">
<path d="M29.7438 41.3258L24.8067 39.1791L22.4746 43.9923L14.0337 21.3162L21.3143 18.6498L29.7438 41.3258Z" fill="#272727"/>
<path d="M2.33936 41.3258L7.27649 39.1791L9.60855 43.9923L18.0495 21.3162L10.7689 18.6498L2.33936 41.3258Z" fill="#272727"/>
<path d="M17.8221 0.640152C19.301 -0.580083 21.5421 0.0187359 22.2019 1.8039C22.6683 3.05803 23.9651 3.79243 25.2847 3.56646C27.1731 3.2388 28.8226 4.87708 28.4927 6.75263C28.2652 8.06325 29.016 9.35128 30.2674 9.81452C32.0648 10.4698 32.6677 12.7069 31.4391 14.1644C30.5745 15.1926 30.5745 16.6727 31.4391 17.7009C32.6677 19.1697 32.0648 21.3955 30.2674 22.0508C29.0046 22.514 28.2652 23.802 28.4927 25.1127C28.8226 26.9882 27.1731 28.6265 25.2847 28.2988C23.9651 28.0729 22.6683 28.8186 22.2019 30.0614C21.5421 31.8466 19.2896 32.4454 17.8221 31.2251C16.7869 30.3664 15.2967 30.3664 14.2615 31.2251C12.7826 32.4454 10.5416 31.8466 9.88177 30.0614C9.41535 28.8073 8.1185 28.0729 6.7989 28.2988C4.9105 28.6265 3.26099 26.9882 3.5909 25.1127C3.81841 23.802 3.0676 22.514 1.81626 22.0508C0.0188644 21.3955 -0.584058 19.1584 0.644539 17.7009C1.50911 16.6727 1.50911 15.1926 0.644539 14.1644C-0.584058 12.6956 0.0188644 10.4698 1.81626 9.81452C3.07898 9.35128 3.81841 8.06325 3.5909 6.75263C3.26099 4.87708 4.9105 3.2388 6.7989 3.56646C8.1185 3.79243 9.41535 3.04673 9.88177 1.8039C10.5416 0.0187359 12.794 -0.580083 14.2615 0.640152C15.2967 1.48754 16.7869 1.48754 17.8221 0.640152Z" fill="url(#paint0_linear)"/>
<defs>
<linearGradient id="paint0_linear" x1="16.0418" y1="0" x2="16.0418" y2="31.8653" gradientUnits="userSpaceOnUse">
<stop offset="0.0001" stop-color="#86C4FF"/>
<stop offset="0.119792" stop-color="#2A63A9"/>
<stop offset="1" stop-color="#40D1FF"/>
</linearGradient>
</defs>
</svg>
