<svg width="36" height="36" viewBox="0 0 36 36" fill="none" xmlns="http://www.w3.org/2000/svg">
<circle cx="18" cy="18" r="18" fill="#2A63A9"/>
<path d="M18.5021 9H18.4979C13.8112 9 10 13.0365 10 18C10 19.9688 10.5993 21.7935 11.6182 23.2751L10.5589 26.6186L13.8261 25.5128C15.1701 26.4555 16.7734 27 18.5021 27C23.1888 27 27 22.9624 27 18C27 13.0376 23.1888 9 18.5021 9ZM23.4481 21.7091C23.243 22.3223 22.4291 22.8307 21.7799 22.9792C21.3358 23.0794 20.7557 23.1593 18.8028 22.302C16.3049 21.2063 14.6962 18.5186 14.5709 18.3442C14.4508 18.1699 13.5615 16.9211 13.5615 15.6296C13.5615 14.3381 14.1809 13.7092 14.4306 13.4392C14.6357 13.2176 14.9746 13.1164 15.2997 13.1164C15.4049 13.1164 15.4995 13.122 15.5845 13.1265C15.8342 13.1378 15.9596 13.1535 16.1242 13.5709C16.3293 14.094 16.8287 15.3855 16.8882 15.5182C16.9488 15.651 17.0093 15.831 16.9243 16.0054C16.8446 16.1854 16.7745 16.2652 16.6491 16.4183C16.5237 16.5712 16.4047 16.6883 16.2794 16.8525C16.1646 16.9954 16.035 17.1484 16.1795 17.4128C16.324 17.6715 16.8234 18.5344 17.5586 19.2274C18.5074 20.1217 19.2767 20.4075 19.5519 20.529C19.7569 20.619 20.0013 20.5976 20.1511 20.4289C20.3413 20.2118 20.5761 19.8518 20.8152 19.4974C20.9852 19.2431 21.1998 19.2116 21.4251 19.3016C21.6546 19.386 22.869 20.0216 23.1187 20.1532C23.3684 20.286 23.5331 20.349 23.5936 20.4604C23.6531 20.5718 23.6531 21.0949 23.4481 21.7091Z" fill="white"/>
</svg>
